<?xml version="1.0" encoding="UTF-8" standalone="no" ?>
<!DOCTYPE svg PUBLIC "-//W3C//DTD SVG 1.1//EN" "http://www.w3.org/Graphics/SVG/1.1/DTD/svg11.dtd">
<svg xmlns="http://www.w3.org/2000/svg" xmlns:xlink="http://www.w3.org/1999/xlink" version="1.1" width="1080" height="1080" viewBox="0 0 1080 1080" xml:space="preserve">
<desc>Created with Fabric.js 5.2.4</desc>
<defs>
</defs>
<rect x="0" y="0" width="100%" height="100%" fill="transparent"></rect>
<g transform="matrix(1 0 0 1 540 540)" id="efa8f09b-035d-498d-b455-23877341277e"  >
<rect style="stroke: none; stroke-width: 1; stroke-dasharray: none; stroke-linecap: butt; stroke-dashoffset: 0; stroke-linejoin: miter; stroke-miterlimit: 4; fill: rgb(255,255,255); fill-rule: nonzero; opacity: 1;" vector-effect="non-scaling-stroke"  x="-540" y="-540" rx="0" ry="0" width="1080" height="1080" />
</g>
<g transform="matrix(1 0 0 1 540 540)" id="eeedfbc0-c7a2-4cac-8480-499c43e30f71"  >
</g>
<g transform="matrix(0.45 0 0 0.45 540 540)"  >
<g style=""   >
		<g transform="matrix(0.13 0 0 -0.13 -28.15 -1000.89)"  >
<path style="stroke: none; stroke-width: 1; stroke-dasharray: none; stroke-linecap: butt; stroke-dashoffset: 0; stroke-linejoin: miter; stroke-miterlimit: 4; fill: rgb(255,136,0); fill-rule: nonzero; opacity: 1;" vector-effect="non-scaling-stroke"  transform=" translate(-11788.91, -19506.65)" d="M 11680 20018 C 11008 19983 11041 19984 10590 19991 C 10362 19995 10319 19990 10288 19954 C 10276 19941 10260 19930 10253 19930 C 10246 19930 10240 19926 10240 19920 C 10240 19914 10188 19910 10105 19910 C 10004 19910 9961 19906 9937 19895 C 9897 19876 9866 19858 9849 19843 C 9841 19837 9801 19829 9760 19825 C 9675 19817 9624 19804 9613 19786 C 9603 19771 9538 19744 9473 19730 C 9445 19724 9398 19703 9368 19684 C 9339 19665 9297 19645 9275 19639 C 9214 19624 9180 19609 9151 19584 C 9136 19571 9104 19553 9079 19544 C 9036 19527 8990 19499 8961 19471 C 8953 19464 8927 19450 8904 19440 C 8881 19430 8844 19406 8823 19388 C 8802 19369 8772 19346 8755 19335 C 8654 19272 8430 19040 8430 18998 C 8430 18986 8489 18989 8513 19001 C 8525 19008 8548 19024 8564 19037 C 8580 19050 8620 19075 8654 19092 C 8688 19109 8727 19133 8742 19145 C 8757 19158 8793 19176 8822 19186 C 8851 19195 8898 19218 8925 19236 C 8953 19254 9006 19278 9045 19291 C 9083 19303 9134 19326 9158 19341 C 9182 19356 9232 19378 9270 19389 C 9307 19401 9369 19424 9406 19440 C 9443 19457 9520 19482 9577 19495 C 9634 19509 9702 19529 9728 19539 C 9783 19562 9818 19572 9955 19599 C 10010 19610 10088 19631 10127 19645 C 10167 19659 10275 19681 10367 19695 C 10460 19709 10573 19727 10620 19735 C 10733 19754 10933 19776 11105 19790 C 11182 19796 11288 19805 11340 19810 C 11595 19836 12266 19830 12503 19800 C 12544 19795 12657 19786 12754 19780 C 12949 19768 13047 19756 13355 19711 C 13617 19672 13653 19665 13770 19630 C 13822 19614 13906 19594 13955 19585 C 14054 19569 14086 19560 14142 19536 C 14162 19527 14229 19506 14291 19490 C 14353 19473 14433 19446 14469 19431 C 14505 19415 14571 19392 14615 19380 C 14659 19369 14711 19348 14730 19336 C 14749 19323 14802 19300 14847 19285 C 14893 19271 14932 19254 14936 19249 C 14949 19227 15096 19170 15140 19170 C 15171 19170 15103 19253 15056 19271 C 15039 19278 15014 19293 15000 19305 C 14965 19336 14718 19467 14660 19485 C 14646 19489 14619 19503 14600 19516 C 14580 19529 14533 19550 14495 19564 C 14456 19577 14396 19599 14361 19614 C 14326 19629 14257 19652 14206 19665 C 14156 19678 14079 19702 14035 19719 C 13991 19735 13904 19761 13841 19776 C 13778 19790 13709 19810 13686 19820 C 13663 19830 13609 19843 13565 19850 C 13521 19856 13451 19869 13410 19877 C 13369 19885 13310 19896 13280 19901 C 13250 19907 13200 19917 13170 19925 C 13058 19952 12672 19988 12350 20000 C 12243 20004 12135 20011 12110 20014 C 12044 20024 11824 20026 11680 20018 z" stroke-linecap="round" />
</g>
		<g transform="matrix(0.13 0 0 -0.13 427.89 -951.27)"  >
<path style="stroke: none; stroke-width: 1; stroke-dasharray: none; stroke-linecap: butt; stroke-dashoffset: 0; stroke-linejoin: miter; stroke-miterlimit: 4; fill: rgb(255,136,0); fill-rule: nonzero; opacity: 1;" vector-effect="non-scaling-stroke"  transform=" translate(-15209.18, -19134.54)" d="M 15160 19151 C 15160 19135 15188 19119 15227 19113 C 15262 19107 15264 19108 15251 19123 C 15244 19133 15227 19140 15214 19140 C 15202 19140 15188 19145 15185 19150 C 15177 19162 15160 19163 15160 19151 z" stroke-linecap="round" />
</g>
		<g transform="matrix(0.13 0 0 -0.13 -480 -925.33)"  >
<path style="stroke: none; stroke-width: 1; stroke-dasharray: none; stroke-linecap: butt; stroke-dashoffset: 0; stroke-linejoin: miter; stroke-miterlimit: 4; fill: rgb(255,136,0); fill-rule: nonzero; opacity: 1;" vector-effect="non-scaling-stroke"  transform=" translate(-8400, -18940)" d="M 8390 18940 C 8390 18935 8395 18930 8400 18930 C 8406 18930 8410 18935 8410 18940 C 8410 18946 8406 18950 8400 18950 C 8395 18950 8390 18946 8390 18940 z" stroke-linecap="round" />
</g>
		<g transform="matrix(0.13 0 0 -0.13 -194.87 -802.71)"  >
<path style="stroke: none; stroke-width: 1; stroke-dasharray: none; stroke-linecap: butt; stroke-dashoffset: 0; stroke-linejoin: miter; stroke-miterlimit: 4; fill: rgb(255,136,0); fill-rule: nonzero; opacity: 1;" vector-effect="non-scaling-stroke"  transform=" translate(-10538.47, -18020.35)" d="M 10445 18026 C 10406 18017 10399 18013 10414 18007 C 10426 18002 10436 18004 10441 18011 C 10446 18020 10458 18020 10493 18011 C 10526 18001 10547 18001 10576 18009 C 10597 18015 10631 18021 10650 18021 C 10680 18022 10678 18024 10635 18030 C 10565 18041 10503 18040 10445 18026 z" stroke-linecap="round" />
</g>
		<g transform="matrix(0.13 0 0 -0.13 -21.95 -688.35)"  >
<path style="stroke: none; stroke-width: 1; stroke-dasharray: none; stroke-linecap: butt; stroke-dashoffset: 0; stroke-linejoin: miter; stroke-miterlimit: 4; fill: rgb(255,136,0); fill-rule: nonzero; opacity: 1;" vector-effect="non-scaling-stroke"  transform=" translate(-11835.35, -17162.62)" d="M 10070 17950 C 9924 17944 9886 17935 9844 17898 C 9820 17877 9739 17860 9660 17860 C 9600 17860 9539 17840 9505 17810 C 9492 17799 9447 17786 9380 17775 C 9304 17763 9257 17749 9210 17725 C 9174 17706 9115 17682 9079 17671 C 9042 17660 8995 17639 8975 17625 C 8954 17611 8902 17589 8860 17576 C 8818 17562 8754 17536 8719 17517 C 8684 17498 8644 17479 8630 17475 C 8616 17471 8589 17455 8570 17440 C 8550 17425 8510 17400 8480 17385 C 8450 17370 8412 17348 8395 17335 C 8379 17323 8338 17299 8304 17282 C 8271 17265 8238 17245 8231 17236 C 8224 17228 8190 17205 8156 17186 C 8122 17167 8086 17142 8076 17131 C 8065 17119 8038 17099 8014 17085 C 7990 17071 7967 17054 7963 17046 C 7959 17039 7914 16999 7865 16958 C 7771 16880 7490 16579 7490 16556 C 7490 16553 7470 16518 7445 16478 C 7420 16438 7400 16398 7400 16388 C 7400 16363 7425 16366 7447 16393 C 7457 16406 7486 16429 7510 16445 C 7535 16460 7574 16490 7597 16511 C 7619 16532 7655 16558 7677 16568 C 7698 16579 7720 16597 7727 16608 C 7733 16618 7764 16639 7795 16654 C 7827 16669 7867 16692 7884 16705 C 7902 16719 7938 16739 7966 16751 C 7993 16763 8026 16781 8040 16790 C 8054 16800 8101 16823 8145 16842 C 8189 16861 8242 16889 8264 16903 C 8285 16918 8321 16935 8344 16941 C 8366 16947 8422 16972 8468 16996 C 8515 17020 8560 17040 8568 17040 C 8577 17040 8627 17060 8679 17085 C 8732 17109 8806 17136 8844 17145 C 8882 17154 8935 17173 8963 17187 C 9022 17216 9080 17234 9167 17250 C 9202 17256 9261 17274 9298 17290 C 9335 17306 9415 17329 9476 17340 C 9536 17352 9605 17370 9630 17381 C 9696 17408 9783 17427 9890 17439 C 9994 17451 10022 17456 10185 17494 C 10246 17508 10363 17527 10445 17535 C 10615 17553 10608 17552 10790 17584 C 10984 17619 11110 17628 11610 17642 C 12254 17659 12816 17635 13087 17579 C 13140 17569 13253 17553 13339 17545 C 13549 17525 13627 17513 13745 17485 C 13857 17458 13927 17446 14046 17430 C 14090 17424 14175 17404 14234 17384 C 14294 17365 14377 17345 14419 17339 C 14461 17333 14530 17315 14573 17298 C 14617 17281 14694 17257 14745 17245 C 14796 17232 14868 17208 14906 17192 C 14944 17175 15004 17154 15039 17145 C 15075 17136 15131 17115 15164 17098 C 15220 17070 15276 17045 15500 16953 C 15547 16933 15599 16907 15615 16895 C 15632 16883 15680 16858 15722 16841 C 15764 16823 15805 16802 15812 16793 C 15819 16784 15853 16764 15888 16749 C 15922 16733 15967 16707 15988 16691 C 16008 16674 16044 16654 16068 16646 C 16092 16637 16130 16615 16153 16597 C 16207 16553 16238 16537 16256 16544 C 16282 16554 16272 16590 16238 16608 C 16221 16617 16184 16647 16156 16674 C 16063 16763 16035 16786 15990 16815 C 15965 16830 15922 16860 15894 16881 C 15866 16903 15839 16920 15834 16920 C 15829 16920 15807 16937 15785 16956 C 15763 16976 15711 17009 15669 17031 C 15626 17052 15589 17074 15585 17080 C 15581 17086 15553 17103 15522 17119 C 15491 17134 15418 17171 15360 17199 C 15302 17228 15248 17256 15240 17261 C 15216 17276 15190 17287 15100 17321 C 15053 17338 14986 17366 14950 17382 C 14914 17399 14851 17423 14810 17437 C 14769 17450 14722 17467 14705 17474 C 14689 17481 14650 17495 14620 17504 C 14590 17514 14552 17528 14535 17535 C 14519 17542 14478 17556 14445 17565 C 14412 17574 14365 17588 14340 17595 C 14315 17603 14277 17612 14255 17616 C 14233 17619 14177 17634 14130 17648 C 14083 17662 14032 17673 14017 17672 C 14002 17671 13992 17674 13994 17679 C 13997 17684 13971 17690 13935 17694 C 13900 17697 13852 17707 13828 17716 C 13782 17732 13678 17756 13590 17770 C 13560 17775 13519 17783 13500 17789 C 13481 17795 13451 17800 13433 17800 C 13416 17800 13381 17809 13355 17820 C 13329 17831 13291 17840 13271 17840 C 13250 17840 13231 17843 13228 17846 C 13225 17849 13149 17853 13059 17855 C 12969 17857 12879 17864 12860 17871 C 12841 17877 12771 17886 12705 17891 C 12639 17895 12565 17901 12540 17904 C 12416 17918 12359 17921 12175 17924 C 12065 17926 11908 17929 11825 17931 C 11743 17933 11569 17929 11440 17921 C 11265 17911 11205 17910 11202 17919 C 11200 17925 11184 17930 11167 17930 C 11115 17930 11000 17894 11000 17878 C 11000 17875 10982 17869 10960 17865 C 10938 17861 10920 17854 10920 17848 C 10920 17842 10906 17840 10883 17845 C 10821 17857 10600 17862 10600 17852 C 10600 17836 10490 17821 10323 17815 C 10180 17810 10160 17811 10160 17824 C 10160 17834 10151 17840 10134 17840 C 10120 17840 10111 17844 10115 17850 C 10118 17856 10113 17860 10103 17861 C 10065 17863 10168 17889 10220 17890 C 10279 17891 10332 17911 10310 17925 C 10301 17931 10301 17934 10311 17941 C 10321 17947 10313 17950 10290 17950 C 10271 17950 10246 17952 10235 17954 C 10224 17955 10150 17954 10070 17950 z M 10083 17843 C 10076 17841 10062 17841 10053 17843 C 10043 17846 10049 17848 10065 17848 C 10082 17848 10089 17846 10083 17843 z" stroke-linecap="round" />
</g>
		<g transform="matrix(0.13 0 0 -0.13 -25.51 30.21)"  >
<path style="stroke: none; stroke-width: 1; stroke-dasharray: none; stroke-linecap: butt; stroke-dashoffset: 0; stroke-linejoin: miter; stroke-miterlimit: 4; fill: rgb(255,136,0); fill-rule: nonzero; opacity: 1;" vector-effect="non-scaling-stroke"  transform=" translate(-11808.65, -11773.43)" d="M 9936 15490 C 9920 15485 9878 15482 9843 15484 C 9788 15487 9780 15485 9780 15469 C 9780 15459 9776 15448 9770 15445 C 9765 15442 9760 15430 9760 15419 C 9760 15402 9754 15400 9723 15404 C 9702 15406 9684 15413 9682 15419 C 9679 15427 9673 15427 9659 15419 C 9647 15413 9617 15411 9586 15415 C 9508 15425 9385 15404 9321 15369 C 9274 15344 9214 15325 9110 15304 C 9096 15301 9064 15285 9038 15268 C 9012 15252 8963 15232 8930 15224 C 8873 15211 8832 15191 8802 15163 C 8795 15156 8765 15143 8735 15135 C 8706 15126 8658 15102 8629 15081 C 8599 15060 8557 15033 8534 15022 C 8512 15011 8487 14994 8480 14985 C 8472 14976 8443 14953 8415 14936 C 8340 14887 8147 14689 8045 14555 C 8026 14531 7994 14478 7974 14438 C 7954 14398 7930 14354 7921 14340 C 7911 14326 7898 14295 7891 14270 C 7884 14245 7864 14198 7848 14165 C 7828 14126 7807 14058 7789 13970 C 7774 13896 7754 13801 7744 13760 C 7721 13658 7720 13344 7743 13250 C 7751 13214 7770 13133 7784 13070 C 7812 12938 7816 12928 7845 12880 C 7857 12861 7875 12822 7884 12793 C 7894 12764 7921 12711 7946 12673 C 7970 12636 7990 12601 7990 12595 C 7990 12581 8061 12496 8144 12410 C 8245 12306 8396 12188 8481 12145 C 8511 12130 8549 12108 8565 12095 C 8582 12083 8613 12067 8635 12060 C 8657 12054 8708 12030 8748 12009 C 8788 11987 8850 11960 8885 11949 C 8921 11938 8983 11914 9022 11895 C 9062 11876 9104 11860 9116 11860 C 9128 11860 9171 11849 9211 11835 C 9322 11796 9415 11773 9515 11760 C 9565 11753 9648 11739 9700 11729 C 9902 11688 10051 11676 10495 11665 C 11090 11649 11919 11619 12270 11601 C 12708 11577 12875 11569 13085 11560 C 13290 11551 13505 11534 13540 11525 C 13580 11514 13886 11479 14051 11466 C 14183 11455 14282 11441 14394 11416 C 14481 11396 14591 11376 14638 11370 C 14750 11356 14801 11343 14875 11309 C 14908 11294 14953 11277 14975 11271 C 14997 11265 15040 11244 15070 11225 C 15100 11205 15139 11183 15157 11175 C 15174 11168 15208 11144 15232 11122 C 15256 11101 15283 11079 15292 11074 C 15309 11065 15422 10940 15476 10871 C 15507 10832 15515 10808 15559 10618 C 15592 10479 15585 10347 15529 10100 C 15516 10044 15438 9905 15385 9845 C 15256 9698 15146 9600 15003 9502 C 14960 9473 14903 9434 14875 9415 C 14848 9396 14792 9365 14752 9346 C 14712 9326 14667 9302 14652 9292 C 14637 9281 14607 9267 14585 9260 C 14536 9244 14440 9201 14420 9185 C 14412 9178 14378 9166 14345 9156 C 14312 9147 14249 9122 14205 9100 C 14149 9073 14101 9058 14045 9050 C 13952 9037 13859 9011 13845 8995 C 13826 8973 13744 8951 13665 8946 C 13621 8943 13558 8938 13525 8934 C 13470 8928 13464 8925 13462 8904 C 13461 8891 13465 8880 13470 8880 C 13476 8880 13480 8885 13480 8891 C 13480 8896 13485 8898 13490 8895 C 13508 8884 13560 8880 13560 8890 C 13560 8895 13566 8897 13574 8894 C 13586 8890 13750 8871 13790 8869 C 13798 8869 13835 8872 13873 8876 C 13939 8883 13940 8882 13940 8859 C 13940 8811 13929 8806 13801 8802 C 13734 8799 13680 8794 13680 8789 C 13680 8784 13658 8780 13631 8780 C 13550 8780 13527 8772 13510 8737 C 13495 8705 13494 8705 13420 8704 C 13340 8702 13225 8679 13207 8661 C 13201 8655 13179 8650 13158 8650 C 13130 8650 13120 8646 13120 8634 C 13120 8617 13077 8620 12977 8642 C 12917 8655 12768 8648 12762 8632 C 12760 8625 12751 8620 12742 8619 C 12728 8619 12729 8617 12745 8609 C 12759 8603 12752 8602 12722 8606 C 12659 8615 12606 8613 12603 8603 C 12601 8598 12562 8598 12512 8602 C 12464 8606 12416 8606 12405 8601 C 12339 8573 12308 8570 12077 8577 C 11947 8580 11840 8587 11840 8592 C 11840 8597 11832 8596 11821 8591 C 11811 8585 11799 8584 11795 8588 C 11788 8596 11581 8598 11582 8590 C 11584 8567 11576 8560 11550 8560 C 11534 8560 11520 8565 11520 8570 C 11520 8576 11488 8579 11443 8579 C 11378 8577 11372 8576 11405 8570 L 11445 8563 L 11404 8561 C 11375 8560 11360 8565 11356 8575 C 11353 8583 11344 8590 11335 8590 C 11327 8590 11320 8583 11320 8575 C 11320 8564 11309 8560 11280 8560 C 11258 8560 11240 8565 11240 8570 C 11240 8576 11230 8580 11218 8581 C 11196 8582 11196 8582 11220 8591 C 11239 8598 11235 8599 11200 8595 C 11173 8593 11163 8594 11174 8599 C 11211 8613 11174 8619 11050 8618 C 10963 8617 10925 8620 10922 8628 C 10920 8635 10902 8640 10882 8639 C 10852 8639 10849 8637 10865 8630 C 10884 8622 10884 8621 10863 8621 C 10850 8620 10840 8624 10840 8629 C 10840 8640 10755 8651 10485 8673 C 10430 8678 10360 8699 10360 8712 C 10360 8716 10342 8720 10320 8720 C 10292 8720 10280 8724 10280 8734 C 10280 8751 10162 8773 10098 8769 C 10036 8764 9928 8780 9912 8797 C 9904 8805 9885 8814 9869 8817 C 9852 8820 9840 8829 9840 8838 C 9840 8849 9833 8851 9810 8847 C 9788 8842 9780 8844 9780 8855 C 9780 8863 9768 8872 9753 8875 C 9693 8887 9654 8903 9630 8926 C 9608 8946 9517 8974 9492 8968 C 9488 8967 9465 8973 9440 8980 C 9415 8987 9389 8994 9383 8996 C 9376 8997 9363 9006 9354 9015 C 9345 9024 9325 9034 9309 9037 C 9293 9040 9280 9046 9280 9051 C 9280 9056 9275 9060 9268 9060 C 9262 9060 9242 9071 9224 9085 C 9206 9099 9187 9110 9181 9110 C 9176 9110 9159 9121 9143 9134 C 9128 9146 9104 9160 9090 9163 C 9032 9176 9020 9179 9001 9190 C 8990 9196 8976 9209 8970 9220 C 8958 9242 8891 9280 8864 9280 C 8840 9280 8810 9309 8817 9326 C 8822 9340 8806 9344 8768 9341 C 8759 9340 8749 9344 8745 9351 C 8739 9359 8736 9359 8730 9350 C 8725 9341 8721 9341 8716 9349 C 8712 9355 8714 9360 8719 9360 C 8735 9360 8732 9399 8715 9416 C 8707 9425 8700 9429 8700 9425 C 8700 9421 8693 9426 8684 9435 C 8675 9444 8661 9449 8653 9446 C 8645 9443 8641 9444 8644 9449 C 8652 9461 8598 9533 8569 9548 C 8556 9555 8536 9573 8526 9587 C 8514 9603 8512 9610 8521 9605 C 8529 9600 8527 9606 8516 9618 C 8506 9630 8495 9639 8491 9638 C 8454 9634 8442 9642 8435 9676 C 8425 9731 8398 9780 8379 9780 C 8369 9780 8349 9794 8333 9810 C 8313 9831 8296 9840 8273 9840 C 8255 9840 8240 9836 8240 9830 C 8240 9813 8216 9819 8188 9844 C 8170 9858 8160 9877 8160 9894 C 8160 9913 8155 9920 8140 9920 C 8127 9920 8120 9927 8120 9940 C 8120 9953 8113 9960 8100 9960 C 8084 9960 8080 9967 8080 9993 L 8080 10026 L 7973 10023 C 7913 10022 7844 10015 7818 10009 C 7769 9998 7762 9986 7769 9931 C 7771 9924 7767 9921 7762 9924 C 7756 9927 7749 9924 7747 9918 C 7743 9908 7741 9908 7741 9918 C 7740 9925 7735 9928 7728 9924 C 7721 9919 7719 9923 7722 9937 C 7727 9954 7721 9956 7676 9958 C 7648 9959 7607 9962 7585 9965 C 7512 9975 7422 9961 7392 9935 L 7365 9912 L 7388 9843 C 7401 9806 7425 9757 7441 9735 C 7457 9713 7478 9682 7488 9666 C 7564 9541 7902 9194 8040 9100 C 8059 9087 8076 9072 8078 9068 C 8083 9057 8254 8943 8304 8918 C 8327 8907 8361 8885 8380 8870 C 8399 8855 8444 8830 8479 8815 C 8515 8800 8558 8778 8574 8766 C 8591 8754 8632 8733 8665 8720 C 8698 8707 8743 8686 8766 8673 C 8789 8660 8838 8639 8876 8626 C 8914 8613 8968 8592 8995 8578 C 9023 8564 9080 8543 9123 8531 C 9166 8519 9224 8498 9252 8484 C 9280 8470 9347 8447 9399 8434 C 9452 8421 9518 8402 9547 8391 C 9575 8380 9649 8359 9712 8345 C 9774 8331 9859 8308 9900 8295 C 9941 8282 10049 8259 10140 8245 C 10231 8231 10350 8209 10405 8195 C 10503 8172 10606 8156 10860 8125 C 10929 8117 11041 8101 11110 8090 C 11337 8054 11534 8047 12250 8053 C 12621 8056 12968 8064 13020 8069 C 13072 8075 13192 8093 13285 8109 C 13379 8126 13508 8146 13573 8155 C 13639 8164 13702 8175 13713 8180 C 13752 8197 13892 8228 14019 8249 C 14087 8261 14186 8283 14239 8299 C 14292 8315 14371 8335 14415 8345 C 14459 8355 14545 8378 14605 8397 C 14666 8416 14747 8437 14786 8445 C 14825 8452 14873 8467 14893 8479 C 14912 8490 14980 8516 15042 8536 C 15104 8557 15170 8584 15188 8596 C 15206 8608 15252 8630 15290 8645 C 15329 8660 15362 8676 15366 8681 C 15369 8686 15403 8706 15442 8726 C 15481 8745 15521 8770 15532 8779 C 15542 8789 15574 8810 15603 8825 C 15632 8841 15659 8859 15663 8867 C 15667 8874 15695 8896 15725 8915 C 15755 8934 15821 8987 15871 9032 C 15921 9078 15976 9124 15993 9136 C 16010 9147 16032 9170 16040 9185 C 16049 9201 16069 9221 16086 9230 C 16108 9243 16116 9255 16118 9281 C 16121 9314 16118 9318 16080 9335 C 16058 9345 16040 9357 16040 9362 C 16040 9367 16036 9369 16031 9365 C 16020 9359 16022 9435 16033 9446 C 16037 9450 16040 9477 16040 9507 C 16040 9553 16043 9560 16060 9560 C 16081 9560 16089 9595 16069 9602 C 16064 9604 16070 9621 16084 9640 C 16098 9659 16117 9690 16127 9708 C 16136 9725 16147 9740 16152 9740 C 16156 9740 16160 9755 16160 9773 C 16160 9794 16168 9814 16179 9824 C 16189 9834 16201 9858 16205 9878 C 16209 9898 16216 9917 16220 9920 C 16225 9923 16231 9981 16234 10050 C 16237 10119 16243 10198 16247 10225 C 16259 10303 16250 10463 16226 10602 C 16217 10650 16213 10697 16217 10706 C 16221 10718 16220 10721 16212 10716 C 16204 10712 16200 10715 16200 10726 C 16200 10736 16197 10740 16193 10737 C 16182 10725 16160 10751 16160 10776 C 16160 10792 16154 10800 16143 10800 C 16131 10801 16117 10819 16102 10853 C 16089 10882 16074 10913 16069 10922 C 16054 10950 16058 10955 16080 10935 C 16091 10925 16100 10922 16100 10928 C 16100 10934 16091 10944 16080 10950 C 16069 10956 16060 10957 16060 10953 C 16060 10949 16049 10957 16035 10972 C 16019 10989 16012 11006 16016 11017 C 16021 11032 16020 11033 16011 11020 C 16002 11007 15997 11007 15973 11020 C 15946 11036 15945 11038 15945 11130 C 15944 11182 15942 11230 15939 11235 C 15936 11241 15935 11255 15936 11268 C 15937 11289 15928 11294 15891 11292 C 15857 11291 15830 11310 15830 11336 C 15830 11366 15782 11416 15733 11436 C 15716 11444 15688 11466 15671 11486 C 15645 11519 15636 11523 15595 11524 C 15570 11524 15550 11527 15550 11531 C 15550 11535 15538 11552 15523 11569 C 15508 11586 15491 11617 15485 11638 C 15475 11673 15472 11675 15431 11678 C 15403 11680 15390 11678 15395 11671 C 15399 11664 15385 11660 15355 11660 C 15314 11660 15307 11663 15292 11690 C 15283 11706 15267 11720 15258 11720 C 15246 11720 15240 11728 15240 11745 C 15240 11768 15237 11770 15188 11770 C 15159 11771 15108 11777 15075 11785 C 15042 11793 14985 11800 14948 11800 L 14880 11800 L 14880 11839 L 14880 11878 L 14808 11890 C 14768 11896 14719 11906 14700 11910 C 14681 11915 14632 11922 14593 11926 C 14553 11929 14520 11937 14520 11941 C 14520 11946 14505 11950 14488 11950 C 14470 11950 14430 11957 14400 11965 C 14370 11973 14305 11982 14256 11985 C 14207 11988 14160 11994 14151 11998 C 14142 12003 14105 12005 14068 12004 C 14030 12002 14000 12005 14000 12011 C 14000 12016 13986 12020 13969 12020 C 13932 12020 13847 12040 13840 12051 C 13833 12061 13542 12083 13529 12074 C 13524 12071 13520 12074 13520 12079 C 13520 12085 13502 12090 13481 12090 C 13459 12090 13440 12094 13438 12100 C 13436 12105 13391 12112 13338 12116 C 13284 12120 13240 12127 13240 12131 C 13240 12136 13231 12140 13219 12140 C 13207 12140 13202 12136 13206 12129 C 13210 12121 13192 12120 13144 12124 C 13106 12127 13001 12132 12910 12135 C 12692 12142 12600 12150 12600 12162 C 12600 12168 12558 12169 12488 12166 C 12331 12157 12309 12158 12190 12170 C 12059 12184 12069 12184 11860 12173 C 11763 12167 11672 12167 11655 12172 C 11639 12176 11610 12180 11593 12180 C 11575 12180 11560 12185 11560 12190 C 11560 12196 11551 12200 11540 12200 C 11529 12200 11520 12196 11520 12190 C 11520 12185 11511 12180 11500 12180 C 11489 12180 11480 12185 11480 12190 C 11480 12196 11471 12200 11460 12200 C 11449 12200 11440 12205 11440 12210 C 11440 12216 11431 12220 11420 12220 C 11409 12220 11400 12216 11400 12210 C 11400 12204 11373 12200 11340 12200 C 11307 12200 11280 12204 11280 12210 C 11280 12216 11261 12220 11238 12220 C 11214 12220 11176 12227 11153 12235 C 11120 12247 10932 12264 10785 12268 C 10769 12269 10657 12272 10538 12276 C 10418 12279 10320 12286 10320 12291 C 10320 12296 10212 12300 10080 12300 C 9881 12300 9840 12302 9840 12314 C 9840 12330 9713 12346 9625 12341 C 9587 12339 9564 12344 9530 12364 C 9492 12385 9469 12390 9375 12394 C 9314 12396 9264 12399 9263 12399 C 9261 12400 9260 12410 9260 12423 C 9260 12439 9249 12450 9219 12463 C 9197 12474 9173 12480 9166 12477 C 9159 12474 9135 12482 9114 12496 C 9090 12510 9059 12519 9034 12520 C 8996 12520 8951 12548 8965 12562 C 8968 12565 8957 12570 8940 12574 C 8923 12577 8890 12598 8868 12620 C 8845 12642 8818 12660 8808 12660 C 8775 12660 8752 12679 8740 12716 C 8733 12736 8708 12773 8684 12798 C 8660 12823 8640 12849 8640 12855 C 8640 12862 8625 12874 8608 12881 C 8590 12888 8571 12896 8566 12898 C 8561 12901 8559 12896 8562 12888 C 8567 12877 8562 12874 8544 12878 C 8523 12882 8520 12888 8519 12929 C 8517 13025 8506 13080 8488 13080 C 8483 13080 8482 13084 8485 13090 C 8488 13095 8479 13110 8464 13122 C 8427 13154 8414 13185 8401 13265 C 8394 13313 8394 13357 8401 13405 C 8412 13481 8403 13680 8389 13680 C 8384 13680 8380 13690 8379 13703 C 8379 13724 8378 13724 8370 13705 C 8363 13688 8361 13688 8361 13703 C 8360 13713 8352 13720 8340 13720 C 8328 13720 8320 13727 8320 13738 C 8320 13759 8334 13782 8346 13780 C 8350 13779 8357 13786 8360 13795 C 8363 13804 8370 13811 8375 13809 C 8381 13808 8390 13816 8395 13826 C 8401 13837 8416 13859 8429 13876 C 8446 13900 8453 13924 8455 13971 C 8461 14065 8463 14072 8493 14103 C 8508 14118 8520 14137 8520 14146 C 8520 14159 8528 14162 8559 14157 C 8580 14155 8602 14155 8607 14159 C 8628 14172 8640 14211 8640 14266 L 8640 14323 L 8691 14317 C 8754 14309 8800 14318 8800 14337 C 8800 14347 8806 14350 8816 14346 C 8825 14343 8835 14340 8840 14340 C 8844 14340 8847 14332 8846 14323 C 8844 14313 8852 14296 8864 14286 C 8880 14271 8881 14268 8868 14273 C 8848 14280 8822 14244 8837 14229 C 8849 14217 8890 14229 8890 14245 C 8890 14262 8920 14286 8952 14294 C 8967 14297 8991 14316 9006 14336 C 9021 14356 9052 14380 9075 14391 C 9097 14401 9137 14428 9163 14450 C 9189 14471 9236 14500 9266 14514 C 9296 14528 9334 14549 9350 14560 C 9366 14572 9410 14591 9447 14604 C 9485 14617 9547 14641 9585 14658 C 9624 14674 9693 14696 9740 14705 C 9787 14714 9868 14735 9920 14751 C 9972 14768 10062 14788 10120 14796 C 10260 14815 10329 14828 10425 14850 C 10469 14861 10616 14881 10752 14895 C 10888 14909 11046 14929 11102 14940 C 11311 14981 11567 14992 12175 14987 C 12764 14981 12764 14981 13065 14927 C 13142 14913 13264 14894 13335 14885 C 13407 14875 13497 14857 13535 14845 C 13574 14832 13668 14811 13745 14797 C 13824 14782 13910 14760 13943 14746 C 13975 14732 14038 14710 14083 14699 C 14128 14687 14190 14665 14220 14650 C 14250 14635 14304 14613 14340 14601 C 14376 14589 14425 14566 14450 14550 C 14475 14534 14516 14514 14540 14505 C 14593 14486 14708 14414 14796 14343 C 14832 14314 14866 14290 14870 14290 C 14875 14290 14901 14269 14927 14243 C 14954 14216 15007 14165 15045 14128 C 15084 14092 15126 14049 15140 14033 C 15154 14018 15186 13988 15210 13967 L 15255 13929 L 15355 13934 C 15410 13937 15477 13946 15504 13954 C 15568 13975 15698 13996 15840 14010 C 16113 14036 16180 14052 16180 14091 C 16180 14102 16174 14118 16166 14126 C 16151 14140 16066 14180 16050 14180 C 16045 14180 16012 14194 15977 14210 C 15941 14227 15903 14240 15893 14240 C 15882 14240 15859 14256 15840 14275 C 15822 14294 15804 14308 15802 14305 C 15799 14303 15782 14314 15763 14330 C 15745 14347 15725 14360 15720 14360 C 15714 14360 15710 14369 15710 14380 C 15710 14404 15576 14545 15561 14536 C 15556 14533 15550 14537 15547 14544 C 15539 14564 15488 14568 15472 14550 C 15464 14542 15461 14541 15465 14548 C 15469 14555 15464 14560 15451 14560 C 15435 14560 15433 14565 15436 14589 C 15440 14613 15436 14619 15410 14630 C 15394 14637 15380 14645 15380 14649 C 15380 14652 15367 14661 15350 14668 C 15334 14676 15320 14687 15320 14695 C 15320 14702 15308 14710 15293 14713 C 15245 14724 15200 14757 15200 14783 C 15200 14803 15191 14811 15155 14825 C 15130 14834 15102 14839 15093 14836 C 15069 14826 15040 14839 15040 14859 C 15040 14878 14983 14910 14949 14910 C 14930 14910 14847 14950 14783 14991 C 14743 15016 14680 15009 14680 14979 C 14680 14951 14642 14954 14638 14983 C 14636 14998 14629 15004 14618 15002 C 14608 15000 14600 15004 14600 15010 C 14600 15016 14605 15018 14612 15014 C 14619 15009 14621 15012 14617 15023 C 14613 15033 14617 15040 14627 15042 C 14639 15044 14638 15050 14620 15073 C 14608 15088 14590 15100 14580 15100 C 14569 15100 14535 15107 14503 15115 C 14440 15132 14320 15135 14320 15121 C 14320 15112 14251 15117 14241 15126 C 14239 15128 14244 15138 14254 15148 C 14277 15174 14265 15200 14229 15200 C 14207 15200 14200 15195 14200 15180 C 14200 15169 14194 15160 14187 15160 C 14180 15160 14164 15169 14152 15180 C 14129 15202 14084 15207 14078 15189 C 14075 15180 14069 15180 14053 15189 C 14041 15195 14006 15200 13976 15200 C 13945 15200 13920 15205 13920 15210 C 13920 15216 13911 15220 13901 15220 C 13886 15220 13880 15228 13878 15253 L 13875 15285 L 13785 15291 C 13735 15294 13690 15293 13683 15287 C 13665 15274 13462 15286 13410 15304 L 13365 15319 L 13403 15317 C 13423 15315 13440 15318 13440 15322 C 13440 15326 13423 15330 13401 15330 C 13318 15330 13240 15343 13240 15356 C 13240 15364 13230 15370 13217 15370 C 13205 15370 13184 15377 13171 15386 C 13155 15398 13135 15401 13102 15397 C 13077 15394 13029 15396 12996 15402 C 12892 15418 12807 15419 12756 15404 C 12727 15396 12701 15394 12691 15399 C 12682 15403 12639 15410 12595 15413 C 12512 15419 12477 15427 12484 15439 C 12490 15448 11959 15446 11929 15437 C 11909 15431 11898 15433 11885 15446 C 11861 15471 11630 15483 11587 15462 C 11558 15448 11308 15426 11280 15435 C 11254 15443 11049 15423 11037 15411 C 11019 15393 10952 15398 10908 15421 C 10875 15438 10857 15441 10821 15436 C 10796 15432 10667 15425 10535 15420 C 10266 15410 10240 15406 10240 15379 C 10240 15367 10233 15360 10220 15360 C 10207 15360 10200 15353 10200 15340 C 10200 15323 10193 15320 10160 15320 C 10123 15320 10120 15318 10120 15294 C 10120 15267 10120 15267 10059 15274 C 10025 15277 9989 15280 9979 15280 C 9964 15280 9960 15288 9960 15315 C 9960 15339 9955 15350 9946 15350 C 9938 15350 9930 15347 9927 15343 C 9925 15338 9925 15341 9926 15348 C 9928 15355 9919 15360 9905 15360 C 9887 15360 9880 15365 9880 15379 C 9880 15391 9872 15400 9858 15403 C 9841 15406 9843 15408 9867 15409 C 9884 15409 9929 15417 9967 15426 C 10004 15434 10050 15439 10070 15436 C 10089 15433 10099 15433 10093 15436 C 10086 15439 10080 15453 10080 15466 C 10080 15486 10075 15490 10051 15490 C 10035 15490 10010 15492 9994 15495 C 9978 15497 9952 15495 9936 15490 z M 9534 14999 C 9505 14987 9498 14989 9512 15004 C 9519 15011 9531 15015 9539 15012 C 9550 15008 9549 15005 9534 14999 z M 14880 14730 C 14880 14707 14876 14700 14860 14700 C 14844 14700 14840 14707 14840 14730 C 14840 14753 14844 14760 14860 14760 C 14876 14760 14880 14753 14880 14730 z M 15087 14594 C 15084 14591 15075 14590 15068 14593 C 15060 14596 15063 14599 15074 14599 C 15085 14600 15091 14597 15087 14594 z M 8640 14422 C 8640 14411 8631 14395 8620 14385 C 8602 14369 8600 14369 8600 14383 C 8600 14394 8592 14400 8578 14400 C 8558 14400 8557 14401 8575 14420 C 8598 14446 8640 14447 8640 14422 z M 8310 12767 C 8324 12771 8330 12767 8330 12756 C 8330 12747 8325 12740 8319 12740 C 8298 12740 8270 12761 8270 12778 C 8271 12794 8271 12794 8280 12778 C 8286 12768 8298 12764 8310 12767 z M 13173 12103 C 13155 12101 13125 12101 13108 12103 C 13090 12105 13104 12107 13140 12107 C 13176 12107 13190 12105 13173 12103 z M 14080 11880 C 14080 11867 14073 11860 14060 11860 C 14047 11860 14040 11867 14040 11880 C 14040 11893 14047 11900 14060 11900 C 14073 11900 14080 11893 14080 11880 z M 15160 11600 C 15160 11587 15153 11580 15140 11580 C 15127 11580 15120 11587 15120 11600 C 15120 11613 15127 11620 15140 11620 C 15153 11620 15160 11613 15160 11600 z M 15614 11414 C 15632 11397 15633 11390 15621 11372 C 15609 11353 15541 11360 15529 11382 C 15523 11394 15523 11400 15530 11400 C 15535 11400 15540 11396 15540 11390 C 15540 11385 15545 11380 15550 11380 C 15556 11380 15560 11391 15560 11405 C 15560 11434 15589 11439 15614 11414 z M 16150 10240 C 16150 10190 16129 10186 16112 10233 C 16096 10278 16096 10280 16125 10280 C 16148 10280 16150 10276 16150 10240 z M 15913 10120 C 15910 10109 15901 10100 15894 10100 C 15886 10100 15880 10096 15880 10090 C 15880 10085 15874 10080 15867 10080 C 15859 10080 15853 10092 15853 10110 C 15853 10137 15856 10140 15886 10140 C 15913 10140 15917 10137 15913 10120 z M 15850 10116 C 15850 10105 15831 10101 15825 10110 C 15822 10115 15826 10120 15834 10120 C 15843 10120 15850 10118 15850 10116 z M 8042 9897 C 8046 9877 8043 9874 8024 9878 C 8007 9881 8001 9877 7997 9859 C 7995 9845 7992 9853 7991 9878 C 7990 9916 7992 9920 8014 9920 C 8031 9920 8039 9913 8042 9897 z M 7840 9870 C 7840 9865 7832 9856 7823 9850 C 7806 9839 7806 9839 7823 9844 C 7835 9848 7840 9844 7840 9830 C 7840 9817 7833 9810 7820 9810 C 7804 9810 7800 9817 7800 9845 C 7800 9873 7804 9880 7820 9880 C 7831 9880 7840 9876 7840 9870 z M 15960 9785 C 15960 9765 15938 9720 15928 9720 C 15924 9720 15920 9729 15920 9740 C 15920 9751 15916 9760 15910 9760 C 15905 9760 15900 9769 15900 9780 C 15900 9796 15907 9800 15930 9800 C 15950 9800 15960 9795 15960 9785 z M 7950 9736 C 7950 9711 7935 9700 7913 9707 C 7906 9710 7900 9723 7900 9736 C 7900 9755 7905 9760 7925 9760 C 7945 9760 7950 9755 7950 9736 z M 15780 9631 C 15780 9626 15783 9608 15786 9591 C 15791 9567 15789 9560 15777 9560 C 15769 9560 15760 9551 15757 9540 C 15754 9526 15743 9520 15726 9520 C 15696 9520 15696 9521 15712 9589 C 15722 9636 15726 9640 15752 9640 C 15767 9640 15780 9636 15780 9631 z M 15843 9513 C 15836 9511 15822 9511 15813 9513 C 15803 9516 15809 9518 15825 9518 C 15842 9518 15849 9516 15843 9513 z M 15600 9410 C 15600 9377 15604 9360 15613 9360 C 15621 9360 15620 9356 15610 9350 C 15600 9344 15599 9340 15608 9340 C 15614 9340 15620 9336 15620 9330 C 15620 9310 15563 9320 15541 9344 C 15520 9367 15519 9368 15536 9404 C 15546 9424 15560 9440 15567 9440 C 15574 9440 15580 9445 15580 9450 C 15580 9456 15585 9460 15590 9460 C 15596 9460 15600 9438 15600 9410 z M 8580 9421 C 8580 9410 8576 9398 8570 9395 C 8564 9391 8560 9400 8560 9414 C 8560 9428 8565 9440 8570 9440 C 8576 9440 8580 9431 8580 9421 z M 8693 9346 C 8711 9332 8717 9300 8700 9300 C 8695 9300 8693 9307 8697 9316 C 8701 9326 8696 9333 8681 9337 C 8670 9340 8660 9346 8660 9351 C 8660 9364 8672 9362 8693 9346 z M 8655 9330 C 8658 9325 8656 9320 8651 9320 C 8645 9320 8640 9325 8640 9330 C 8640 9336 8642 9340 8644 9340 C 8647 9340 8652 9336 8655 9330 z M 8594 9164 C 8614 9156 8615 9120 8596 9120 C 8579 9120 8566 9150 8583 9151 C 8590 9151 8586 9155 8575 9160 C 8552 9170 8570 9173 8594 9164 z M 14760 9055 C 14760 9046 14769 9040 14783 9040 C 14801 9040 14802 9038 14790 9030 C 14770 9017 14720 9017 14720 9030 C 14720 9036 14725 9040 14730 9040 C 14736 9040 14740 9047 14740 9055 C 14740 9063 14745 9070 14750 9070 C 14756 9070 14760 9063 14760 9055 z M 14507 9034 C 14504 9031 14495 9030 14488 9033 C 14480 9036 14483 9039 14494 9039 C 14505 9040 14511 9037 14507 9034 z M 14398 8932 C 14400 8920 14392 8906 14379 8897 C 14360 8883 14356 8883 14337 8901 C 14324 8913 14302 8920 14278 8920 C 14257 8920 14240 8924 14240 8929 C 14240 8940 14295 8951 14313 8944 C 14321 8941 14332 8946 14339 8954 C 14356 8974 14394 8960 14398 8932 z M 15280 8935 C 15280 8908 15278 8907 15231 8916 C 15210 8921 15200 8928 15200 8941 C 15200 8956 15208 8960 15240 8960 C 15276 8960 15280 8958 15280 8935 z M 14155 8939 C 14167 8921 14132 8892 14105 8898 C 14087 8901 14080 8909 14080 8926 C 14080 8947 14085 8950 14114 8950 C 14133 8950 14152 8945 14155 8939 z M 14775 8748 C 14814 8730 14807 8710 14760 8710 C 14724 8710 14720 8713 14720 8735 C 14720 8763 14735 8766 14775 8748 z M 12458 8593 C 12448 8591 12432 8591 12423 8593 C 12413 8596 12421 8598 12440 8598 C 12459 8598 12467 8596 12458 8593 z M 12560 8575 C 12560 8563 12544 8560 12480 8560 C 12396 8560 12369 8576 12443 8583 C 12541 8592 12560 8590 12560 8575 z" stroke-linecap="round" />
</g>
		<g transform="matrix(0.13 0 0 -0.13 533.33 126.76)"  >
<path style="stroke: none; stroke-width: 1; stroke-dasharray: none; stroke-linecap: butt; stroke-dashoffset: 0; stroke-linejoin: miter; stroke-miterlimit: 4; fill: rgb(255,136,0); fill-rule: nonzero; opacity: 1;" vector-effect="non-scaling-stroke"  transform=" translate(-16000, -11049.29)" d="M 16000 11080 C 16000 11076 15991 11074 15980 11077 C 15965 11081 15960 11077 15960 11062 C 15960 11041 15985 11026 16002 11036 C 16008 11040 16019 11035 16027 11025 C 16039 11008 16040 11009 16040 11042 C 16040 11069 16035 11079 16020 11083 C 16009 11086 16000 11084 16000 11080 z" stroke-linecap="round" />
</g>
		<g transform="matrix(0.13 0 0 -0.13 539.76 134.67)"  >
<path style="stroke: none; stroke-width: 1; stroke-dasharray: none; stroke-linecap: butt; stroke-dashoffset: 0; stroke-linejoin: miter; stroke-miterlimit: 4; fill: rgb(255,136,0); fill-rule: nonzero; opacity: 1;" vector-effect="non-scaling-stroke"  transform=" translate(-16048.2, -10990)" d="M 16040 10990 C 16040 10985 16045 10980 16051 10980 C 16056 10980 16058 10985 16055 10990 C 16052 10996 16047 11000 16044 11000 C 16042 11000 16040 10996 16040 10990 z" stroke-linecap="round" />
</g>
		<g transform="matrix(0.13 0 0 -0.13 546.67 136)"  >
<path style="stroke: none; stroke-width: 1; stroke-dasharray: none; stroke-linecap: butt; stroke-dashoffset: 0; stroke-linejoin: miter; stroke-miterlimit: 4; fill: rgb(255,136,0); fill-rule: nonzero; opacity: 1;" vector-effect="non-scaling-stroke"  transform=" translate(-16100, -10980)" d="M 16080 10980 C 16080 10967 16087 10960 16100 10960 C 16113 10960 16120 10967 16120 10980 C 16120 10993 16113 11000 16100 11000 C 16087 11000 16080 10993 16080 10980 z" stroke-linecap="round" />
</g>
		<g transform="matrix(0.13 0 0 -0.13 -103.98 451.37)"  >
<path style="stroke: none; stroke-width: 1; stroke-dasharray: none; stroke-linecap: butt; stroke-dashoffset: 0; stroke-linejoin: miter; stroke-miterlimit: 4; fill: rgb(255,136,0); fill-rule: nonzero; opacity: 1;" vector-effect="non-scaling-stroke"  transform=" translate(-11220.18, -8614.75)" d="M 11208 8613 C 11214 8611 11226 8611 11233 8613 C 11239 8616 11234 8618 11220 8618 C 11206 8618 11201 8616 11208 8613 z" stroke-linecap="round" />
</g>
		<g transform="matrix(0.13 0 0 -0.13 -7.12 454.03)"  >
<path style="stroke: none; stroke-width: 1; stroke-dasharray: none; stroke-linecap: butt; stroke-dashoffset: 0; stroke-linejoin: miter; stroke-miterlimit: 4; fill: rgb(255,136,0); fill-rule: nonzero; opacity: 1;" vector-effect="non-scaling-stroke"  transform=" translate(-11946.61, -8594.75)" d="M 11933 8593 C 11942 8591 11956 8591 11963 8593 C 11969 8596 11962 8598 11945 8598 C 11929 8598 11923 8596 11933 8593 z" stroke-linecap="round" />
</g>
		<g transform="matrix(0.13 0 0 -0.13 -27.49 748.62)"  >
<path style="stroke: none; stroke-width: 1; stroke-dasharray: none; stroke-linecap: butt; stroke-dashoffset: 0; stroke-linejoin: miter; stroke-miterlimit: 4; fill: rgb(255,136,0); fill-rule: nonzero; opacity: 1;" vector-effect="non-scaling-stroke"  transform=" translate(-11793.83, -6385.32)" d="M 7500 7215 C 7482 7194 7496 7164 7554 7100 C 7582 7068 7628 7014 7655 6980 C 7718 6901 7733 6886 7855 6773 C 8000 6641 8058 6593 8116 6560 C 8144 6544 8175 6521 8186 6509 C 8196 6497 8223 6479 8245 6468 C 8267 6456 8302 6434 8322 6418 C 8342 6403 8378 6381 8402 6370 C 8427 6359 8458 6341 8473 6330 C 8487 6319 8530 6297 8567 6281 C 8604 6266 8652 6241 8673 6227 C 8694 6213 8734 6194 8763 6185 C 8792 6175 8836 6155 8861 6139 C 8886 6123 8933 6102 8967 6091 C 9000 6080 9054 6058 9086 6042 C 9119 6025 9188 5998 9239 5980 C 9291 5963 9343 5942 9355 5934 C 9378 5919 9433 5902 9548 5875 C 9588 5866 9640 5850 9664 5839 C 9688 5829 9769 5806 9844 5790 C 9919 5773 10004 5751 10034 5741 C 10063 5730 10129 5717 10181 5710 C 10233 5704 10309 5694 10350 5689 C 10391 5684 10470 5669 10525 5655 C 10675 5619 10734 5612 10990 5600 C 11119 5594 11295 5583 11380 5575 C 11775 5539 12015 5538 12385 5570 C 12451 5576 12658 5589 12845 5601 C 13187 5621 13215 5624 13325 5653 C 13387 5670 13511 5690 13665 5710 C 13715 5717 13787 5732 13826 5745 C 13864 5759 13936 5776 13986 5785 C 14035 5793 14130 5818 14196 5840 C 14263 5862 14350 5887 14389 5895 C 14428 5903 14487 5923 14519 5940 C 14552 5956 14612 5979 14654 5990 C 14695 6001 14755 6023 14787 6039 C 14819 6055 14870 6076 14900 6085 C 14930 6095 14978 6116 15006 6131 C 15033 6147 15083 6169 15115 6180 C 15148 6191 15183 6209 15195 6219 C 15216 6240 15317 6290 15337 6290 C 15343 6290 15361 6301 15377 6314 C 15393 6328 15438 6354 15476 6374 C 15514 6393 15556 6420 15568 6433 C 15581 6447 15606 6464 15623 6471 C 15641 6478 15666 6495 15680 6508 C 15694 6521 15730 6548 15760 6568 C 15790 6588 15828 6619 15845 6635 C 15861 6652 15887 6674 15901 6685 C 15915 6696 15933 6718 15941 6734 C 15949 6752 15966 6767 15983 6771 C 16026 6782 16040 6799 16040 6836 C 16040 6867 16038 6870 16009 6870 C 15968 6870 15976 6895 16018 6896 C 16035 6896 16056 6903 16066 6911 C 16075 6919 16086 6924 16089 6922 C 16092 6921 16095 6939 16095 6962 L 16095 7005 L 16035 7004 C 15974 7003 15932 6988 15895 6953 C 15884 6942 15843 6921 15803 6906 C 15764 6891 15725 6871 15715 6860 C 15705 6849 15667 6829 15630 6815 C 15593 6801 15542 6776 15516 6760 C 15490 6743 15434 6721 15392 6709 C 15350 6698 15301 6678 15284 6665 C 15267 6652 15220 6632 15179 6619 C 15093 6594 15054 6575 15023 6548 C 15008 6534 14974 6523 14916 6515 C 14832 6502 14756 6474 14758 6455 C 14759 6442 14726 6430 14670 6424 C 14539 6411 14484 6398 14454 6375 C 14404 6337 14352 6321 14242 6311 C 14143 6302 14082 6281 14095 6261 C 14097 6256 14094 6247 14087 6241 C 14071 6228 13902 6200 13839 6200 C 13793 6200 13748 6178 13763 6163 C 13768 6159 13823 6155 13886 6155 C 13971 6155 14000 6152 14000 6143 C 14000 6136 14010 6130 14023 6129 C 14035 6129 14039 6126 14033 6123 C 14026 6121 14020 6110 14020 6100 C 14020 6090 14026 6080 14033 6077 C 14039 6075 14027 6070 14005 6066 C 13983 6062 13962 6053 13959 6048 C 13955 6041 13911 6037 13851 6037 C 13789 6036 13756 6033 13765 6027 C 13773 6023 13785 6022 13790 6025 C 13796 6028 13800 6024 13800 6016 C 13800 6003 13786 6000 13725 6000 C 13684 6000 13642 5996 13632 5991 C 13623 5985 13603 5979 13588 5975 C 13571 5972 13560 5963 13560 5953 C 13560 5940 13557 5939 13548 5948 C 13531 5965 13520 5963 13520 5944 C 13520 5936 13516 5931 13511 5935 C 13488 5949 13303 5942 13240 5925 C 13204 5916 13164 5908 13150 5908 C 13136 5908 13122 5903 13118 5896 C 13113 5889 13061 5884 12975 5882 L 12839 5878 L 12842 5852 C 12844 5830 12840 5824 12823 5822 C 12810 5820 12800 5823 12800 5829 C 12800 5835 12791 5840 12780 5840 C 12769 5840 12760 5847 12760 5855 C 12760 5867 12756 5868 12742 5861 C 12710 5844 12563 5831 12320 5824 C 12191 5820 12074 5818 12060 5818 C 12046 5818 11866 5821 11660 5823 C 11454 5826 11240 5832 11185 5837 C 11130 5843 11074 5847 11060 5848 C 10975 5851 10801 5869 10780 5877 C 10766 5883 10735 5888 10710 5888 C 10685 5889 10645 5894 10620 5899 C 10595 5905 10536 5912 10488 5915 C 10439 5919 10400 5926 10400 5931 C 10400 5936 10397 5939 10393 5938 C 10367 5933 10040 5992 10040 6002 C 10040 6007 10023 6010 10003 6010 C 9982 6011 9947 6017 9926 6025 C 9904 6033 9883 6037 9879 6034 C 9875 6032 9850 6037 9823 6046 C 9797 6055 9737 6073 9690 6085 C 9643 6098 9592 6113 9575 6118 C 9559 6124 9500 6141 9445 6156 C 9390 6170 9317 6193 9283 6206 C 9249 6220 9213 6233 9203 6235 C 9131 6253 9076 6272 9033 6293 C 9006 6307 8956 6328 8923 6339 C 8837 6368 8801 6383 8665 6446 C 8621 6466 8574 6490 8560 6500 C 8546 6510 8510 6528 8480 6540 C 8450 6553 8412 6573 8395 6585 C 8379 6597 8330 6623 8288 6643 C 8246 6662 8201 6688 8188 6700 C 8175 6712 8152 6729 8135 6737 C 8083 6764 7914 6878 7899 6896 C 7891 6905 7860 6931 7830 6954 C 7800 6976 7766 7003 7755 7013 C 7744 7023 7724 7038 7710 7045 C 7696 7052 7668 7077 7647 7099 C 7626 7122 7605 7140 7600 7140 C 7595 7140 7582 7156 7570 7175 C 7542 7220 7516 7235 7500 7215 z M 14438 6208 C 14435 6201 14420 6194 14404 6193 C 14384 6192 14382 6193 14398 6197 C 14410 6199 14420 6206 14420 6211 C 14420 6216 14425 6220 14431 6220 C 14437 6220 14440 6214 14438 6208 z M 14233 6193 C 14226 6191 14214 6191 14208 6193 C 14201 6196 14206 6198 14220 6198 C 14234 6198 14239 6196 14233 6193 z M 14153 6183 C 14146 6181 14134 6181 14128 6183 C 14121 6186 14126 6188 14140 6188 C 14154 6188 14159 6186 14153 6183 z M 14277 6184 C 14274 6181 14265 6180 14258 6183 C 14250 6186 14253 6189 14264 6189 C 14275 6190 14281 6187 14277 6184 z" stroke-linecap="round" />
</g>
		<g transform="matrix(0.13 0 0 -0.13 551.62 659.34)"  >
<path style="stroke: none; stroke-width: 1; stroke-dasharray: none; stroke-linecap: butt; stroke-dashoffset: 0; stroke-linejoin: miter; stroke-miterlimit: 4; fill: rgb(255,136,0); fill-rule: nonzero; opacity: 1;" vector-effect="non-scaling-stroke"  transform=" translate(-16137.13, -7054.93)" d="M 16117 7075 C 16098 7061 16101 7020 16121 7020 C 16146 7020 16170 7043 16170 7065 C 16170 7094 16146 7098 16117 7075 z" stroke-linecap="round" />
</g>
		<g transform="matrix(0.13 0 0 -0.13 -463.84 982.98)"  >
<path style="stroke: none; stroke-width: 1; stroke-dasharray: none; stroke-linecap: butt; stroke-dashoffset: 0; stroke-linejoin: miter; stroke-miterlimit: 4; fill: rgb(255,136,0); fill-rule: nonzero; opacity: 1;" vector-effect="non-scaling-stroke"  transform=" translate(-8521.17, -4627.67)" d="M 8495 4650 C 8487 4636 8517 4600 8537 4600 C 8558 4600 8549 4630 8523 4647 C 8508 4657 8500 4658 8495 4650 z" stroke-linecap="round" />
</g>
		<g transform="matrix(0.13 0 0 -0.13 -22.12 1055.71)"  >
<path style="stroke: none; stroke-width: 1; stroke-dasharray: none; stroke-linecap: butt; stroke-dashoffset: 0; stroke-linejoin: miter; stroke-miterlimit: 4; fill: rgb(255,136,0); fill-rule: nonzero; opacity: 1;" vector-effect="non-scaling-stroke"  transform=" translate(-11834.08, -4082.14)" d="M 8557 4594 C 8545 4582 8573 4529 8603 4508 C 8621 4496 8648 4471 8663 4453 C 8679 4434 8709 4410 8731 4400 C 8752 4389 8770 4376 8770 4372 C 8770 4359 8937 4241 8983 4221 C 9008 4210 9048 4186 9073 4167 C 9099 4148 9136 4126 9157 4120 C 9178 4113 9218 4093 9245 4074 C 9273 4056 9322 4031 9354 4020 C 9387 4009 9432 3989 9454 3977 C 9477 3964 9524 3945 9560 3936 C 9596 3926 9673 3900 9732 3879 C 9791 3857 9870 3833 9908 3826 C 9945 3818 9997 3802 10023 3791 C 10085 3764 10164 3745 10268 3730 C 10314 3724 10397 3706 10453 3691 C 10578 3656 10650 3643 10760 3635 C 10807 3631 10881 3622 10925 3615 C 11173 3571 11276 3566 11860 3565 C 12448 3565 12513 3568 12895 3614 C 13005 3628 13142 3643 13200 3649 C 13258 3655 13352 3674 13410 3691 C 13468 3707 13549 3725 13590 3731 C 13688 3745 13759 3762 13842 3793 C 13878 3806 13944 3825 13987 3835 C 14030 3844 14093 3865 14126 3880 C 14160 3896 14223 3918 14266 3930 C 14310 3942 14364 3963 14388 3977 C 14412 3990 14463 4012 14502 4026 C 14541 4039 14588 4061 14607 4076 C 14626 4090 14669 4113 14703 4127 C 14737 4140 14779 4164 14795 4179 C 14812 4194 14848 4215 14875 4225 C 14903 4235 14945 4263 14969 4287 C 14994 4311 15020 4330 15027 4330 C 15035 4330 15048 4346 15055 4365 C 15063 4384 15080 4408 15092 4420 L 15114 4440 L 15087 4440 C 15072 4440 15060 4445 15060 4450 C 15060 4457 15054 4457 15041 4450 C 15030 4445 15004 4440 14983 4440 C 14943 4439 14904 4418 14914 4402 C 14917 4396 14902 4377 14880 4360 C 14858 4343 14840 4333 14840 4339 C 14840 4353 14718 4353 14668 4340 C 14641 4332 14629 4322 14621 4300 C 14616 4283 14607 4270 14603 4270 C 14530 4267 14386 4248 14371 4240 C 14360 4235 14344 4217 14335 4202 C 14319 4176 14312 4174 14187 4157 C 14115 4147 14054 4138 14052 4135 C 14050 4133 14060 4119 14075 4104 C 14105 4074 14100 4063 14045 4044 C 14020 4036 13999 4035 13977 4041 C 13939 4052 13691 4055 13637 4045 C 13609 4040 13600 4034 13604 4023 C 13607 4015 13610 4007 13610 4005 C 13610 4003 13625 3998 13643 3995 C 13667 3990 13676 3983 13676 3969 C 13676 3948 13678 3948 13555 3945 C 13419 3942 13340 3931 13340 3914 C 13340 3906 13344 3900 13349 3900 C 13355 3900 13358 3891 13357 3880 C 13355 3857 13351 3856 13155 3841 C 12916 3823 12777 3810 12715 3799 C 12682 3794 12644 3789 12631 3790 C 12618 3790 12584 3783 12556 3775 C 12495 3756 12179 3745 11765 3746 C 11504 3747 11292 3758 11125 3780 C 11087 3785 10990 3796 10910 3805 C 10624 3836 10574 3843 10475 3866 C 10420 3879 10305 3901 10220 3915 C 10135 3929 10052 3947 10035 3955 C 10019 3963 9971 3978 9930 3990 C 9889 4001 9808 4026 9750 4046 C 9692 4065 9611 4092 9569 4105 C 9526 4118 9455 4144 9411 4164 C 9366 4184 9323 4200 9316 4200 C 9297 4200 9188 4249 9170 4265 C 9162 4272 9128 4289 9095 4301 C 9037 4322 8991 4347 8980 4362 C 8977 4366 8948 4381 8915 4395 C 8883 4410 8839 4435 8819 4451 C 8799 4467 8777 4480 8771 4480 C 8758 4480 8679 4527 8665 4544 C 8629 4585 8574 4611 8557 4594 z" stroke-linecap="round" />
</g>
</g>
</g>
</svg>